<svg id="Layer_1" data-name="Layer 1" xmlns="http://www.w3.org/2000/svg" viewBox="0 0 301.92 26.12"><defs><style>.cls-1{fill:none;stroke:#fff;stroke-miterlimit:10;}</style></defs><title>name</title><path class="cls-1" d="M195.48,509.42H184.58L183,512.79a2.82,2.82,0,0,0-.33,1.11A1.22,1.22,0,0,0,183.8,515v0.56h-7.94V515a2.13,2.13,0,0,0,1.07-.49,4.83,4.83,0,0,0,.84-1.37l8.82-18.44a3.51,3.51,0,0,0,.42-1.41,1.24,1.24,0,0,0-1-1.16v-0.56h8.51v0.56a1.14,1.14,0,0,0-1,1,2.6,2.6,0,0,0,.33,1.16L203,512.79a6.26,6.26,0,0,0,1,1.61,2.23,2.23,0,0,0,1.18.57v0.56h-8.83V515a1.13,1.13,0,0,0,1.16-1.09,2.82,2.82,0,0,0-.35-1.09ZM194,506.13l-3.89-8.55-4,8.55H194Z" transform="translate(-175.37 -491.04)"/><path class="cls-1" d="M212.59,512h11a1.27,1.27,0,0,0,.84-0.24,1.88,1.88,0,0,0,.47-0.88h0.47v5.82h-0.47a1.75,1.75,0,0,0-.47-0.88,1.29,1.29,0,0,0-.85-0.25H206.75V515a1.66,1.66,0,0,0,.87-0.46,1.26,1.26,0,0,0,.25-0.84v-16.1a1.22,1.22,0,0,0-.25-0.83,1.9,1.9,0,0,0-.88-0.47v-0.49h7v0.49a1.75,1.75,0,0,0-.88.47,1.26,1.26,0,0,0-.25.83V512Z" transform="translate(-175.37 -491.04)"/><path class="cls-1" d="M238.51,495.43a12.53,12.53,0,0,1,7.83,2.39,9.56,9.56,0,0,1,3.75,8,9.24,9.24,0,0,1-3.75,7.72,13.9,13.9,0,0,1-15.59,0,10.12,10.12,0,0,1,0-15.75A12.81,12.81,0,0,1,238.51,495.43Zm0,3.73a6.66,6.66,0,0,0-5,2,6.79,6.79,0,0,0,0,9.16,7.26,7.26,0,0,0,9.95,0,6.15,6.15,0,0,0,1.78-4.48,6.32,6.32,0,0,0-1.78-4.68A6.9,6.9,0,0,0,238.52,499.15Z" transform="translate(-175.37 -491.04)"/><path class="cls-1" d="M261.72,506.57l-2.8,2.27v4.89a1.25,1.25,0,0,0,.25.83,1.85,1.85,0,0,0,.88.48v0.49h-7V515a1.66,1.66,0,0,0,.87-0.46,1.26,1.26,0,0,0,.25-0.84v-16.1a1.22,1.22,0,0,0-.25-0.83,1.9,1.9,0,0,0-.88-0.47v-0.49h7v0.49a1.75,1.75,0,0,0-.88.47,1.26,1.26,0,0,0-.25.84v6.45l7.41-5.91a1.72,1.72,0,0,0,.83-1.14q0-.53-1-0.7v-0.49H275v0.49a2.77,2.77,0,0,0-1.12.4q-0.45.3-2.22,1.83L265,503.89l7.29,8.38a19.67,19.67,0,0,0,2,2.11,3.34,3.34,0,0,0,1.4.66v0.49h-8.62V515a1,1,0,0,0,1-.7A0.59,0.59,0,0,0,268,514q-0.11-.17-0.82-1Z" transform="translate(-175.37 -491.04)"/><path class="cls-1" d="M293.11,499.1v14.59a1.22,1.22,0,0,0,.25.83,1.8,1.8,0,0,0,.88.46v0.56h-7V515a1.8,1.8,0,0,0,.88-0.46,1.22,1.22,0,0,0,.25-0.83V493.37a1.19,1.19,0,0,0-.25-0.81,1.8,1.8,0,0,0-.88-0.46v-0.56h8.16v0.56a0.83,0.83,0,0,0-.76.81,1.43,1.43,0,0,0,.49.93l13.24,13.76V493.37a1.19,1.19,0,0,0-.25-0.81,1.8,1.8,0,0,0-.88-0.46v-0.56h7v0.56a1.8,1.8,0,0,0-.88.46,1.19,1.19,0,0,0-.25.81v20.32a1.22,1.22,0,0,0,.25.83,1.8,1.8,0,0,0,.88.46v0.56h-7.56V515a0.77,0.77,0,0,0,.74-0.76,2.59,2.59,0,0,0-.86-1.23Z" transform="translate(-175.37 -491.04)"/><path class="cls-1" d="M333.29,510.61h-9.05l-1,2.14a3.09,3.09,0,0,0-.37,1.21A1.13,1.13,0,0,0,324,515v0.49h-7.23V515a1.88,1.88,0,0,0,1-.4,4.34,4.34,0,0,0,.76-1.18l7.19-14.55a3.38,3.38,0,0,0,.4-1.44,1.28,1.28,0,0,0-1-1.12v-0.49h7.65v0.49a1.28,1.28,0,0,0-1,1.2,3.24,3.24,0,0,0,.44,1.42l7.45,14.12a6.83,6.83,0,0,0,1,1.49,2.08,2.08,0,0,0,1.07.48v0.49h-8V515a1.11,1.11,0,0,0,1.14-1.07,3,3,0,0,0-.44-1.35Zm-1.42-2.76-3.22-6.33-3.07,6.33h6.29Z" transform="translate(-175.37 -491.04)"/><path class="cls-1" d="M349.19,507.45v6.28a1.25,1.25,0,0,0,.25.83,1.85,1.85,0,0,0,.88.48v0.49h-7V515a1.66,1.66,0,0,0,.87-0.46,1.26,1.26,0,0,0,.25-0.84v-16.1a1.22,1.22,0,0,0-.25-0.83,1.9,1.9,0,0,0-.88-0.47v-0.49h12.9a21.63,21.63,0,0,1,3.83.25,6.63,6.63,0,0,1,2.36.92,5,5,0,0,1,2.13,4.54,5.13,5.13,0,0,1-1.31,3.74,8.07,8.07,0,0,1-4.23,1.94l3.73,5.19a11.56,11.56,0,0,0,1.63,2,2.89,2.89,0,0,0,1.38.66v0.49h-8.28V515a1,1,0,0,0,.92-0.79,2.45,2.45,0,0,0-.56-1.17l-3.93-5.63h-4.72Zm0-3.57h7.1a6.1,6.1,0,0,0,2.39-.35,1.85,1.85,0,0,0,1.09-1.88,1.91,1.91,0,0,0-.76-1.74,5.36,5.36,0,0,0-2.72-.49h-7.1v4.46Z" transform="translate(-175.37 -491.04)"/><path class="cls-1" d="M383.88,510.61h-9.05l-1,2.14a3.09,3.09,0,0,0-.37,1.21,1.13,1.13,0,0,0,1.13,1.07v0.49h-7.23V515a1.88,1.88,0,0,0,1-.4,4.34,4.34,0,0,0,.76-1.18l7.19-14.55a3.38,3.38,0,0,0,.4-1.44,1.28,1.28,0,0,0-1-1.12v-0.49h7.65v0.49a1.28,1.28,0,0,0-1,1.2,3.24,3.24,0,0,0,.44,1.42l7.45,14.12a6.83,6.83,0,0,0,1,1.49,2.08,2.08,0,0,0,1.07.48v0.49h-8V515a1.11,1.11,0,0,0,1.14-1.07,3,3,0,0,0-.44-1.35Zm-1.42-2.76-3.22-6.33-3.07,6.33h6.29Z" transform="translate(-175.37 -491.04)"/><path class="cls-1" d="M410.78,507h-11v6.77a1.26,1.26,0,0,0,.25.83,1.85,1.85,0,0,0,.88.48v0.49h-7V515a1.66,1.66,0,0,0,.87-0.46,1.26,1.26,0,0,0,.25-0.84v-16.1a1.22,1.22,0,0,0-.25-0.83,1.9,1.9,0,0,0-.88-0.47v-0.49h7v0.49a1.75,1.75,0,0,0-.88.46,1.25,1.25,0,0,0-.25.83v5.75h11v-5.75a1.25,1.25,0,0,0-.24-0.82,1.85,1.85,0,0,0-.89-0.47v-0.49h7v0.49a1.76,1.76,0,0,0-.88.46,1.26,1.26,0,0,0-.25.83v16.09a1.26,1.26,0,0,0,.25.83,1.85,1.85,0,0,0,.88.48v0.49h-7V515a1.66,1.66,0,0,0,.87-0.46,1.27,1.27,0,0,0,.25-0.85V507Z" transform="translate(-175.37 -491.04)"/><path class="cls-1" d="M435,510.61h-9.05l-1,2.14a3.09,3.09,0,0,0-.37,1.21,1.13,1.13,0,0,0,1.13,1.07v0.49h-7.23V515a1.88,1.88,0,0,0,1-.4,4.34,4.34,0,0,0,.76-1.18l7.19-14.55a3.38,3.38,0,0,0,.4-1.44,1.28,1.28,0,0,0-1-1.12v-0.49h7.65v0.49a1.28,1.28,0,0,0-1,1.2,3.24,3.24,0,0,0,.44,1.42l7.45,14.12a6.83,6.83,0,0,0,1,1.49,2.08,2.08,0,0,0,1.07.48v0.49h-8V515a1.11,1.11,0,0,0,1.14-1.07,3,3,0,0,0-.44-1.35Zm-1.42-2.76-3.22-6.33-3.07,6.33h6.29Z" transform="translate(-175.37 -491.04)"/><path class="cls-1" d="M450.88,507.45v6.28a1.25,1.25,0,0,0,.25.83,1.85,1.85,0,0,0,.88.48v0.49h-7V515a1.66,1.66,0,0,0,.87-0.46,1.26,1.26,0,0,0,.25-0.84v-16.1a1.22,1.22,0,0,0-.25-0.83,1.9,1.9,0,0,0-.88-0.47v-0.49h12.9a21.63,21.63,0,0,1,3.83.25,6.63,6.63,0,0,1,2.36.92,5,5,0,0,1,2.13,4.54,5.13,5.13,0,0,1-1.31,3.74,8.07,8.07,0,0,1-4.23,1.94l3.73,5.19a11.56,11.56,0,0,0,1.63,2,2.89,2.89,0,0,0,1.38.66v0.49h-8.28V515a1,1,0,0,0,.92-0.79,2.45,2.45,0,0,0-.56-1.17l-3.93-5.63h-4.72Zm0-3.57H458a6.1,6.1,0,0,0,2.39-.35,1.85,1.85,0,0,0,1.09-1.88,1.91,1.91,0,0,0-.76-1.74,5.36,5.36,0,0,0-2.72-.49h-7.1v4.46Z" transform="translate(-175.37 -491.04)"/><path class="cls-1" d="M475.66,497.64v16.09a1.26,1.26,0,0,0,.25.83,1.85,1.85,0,0,0,.88.48v0.49h-7V515a1.66,1.66,0,0,0,.87-0.46,1.26,1.26,0,0,0,.25-0.84v-16.1a1.22,1.22,0,0,0-.25-0.83,1.9,1.9,0,0,0-.88-0.47v-0.49h7v0.49a1.76,1.76,0,0,0-.88.46A1.26,1.26,0,0,0,475.66,497.64Z" transform="translate(-175.37 -491.04)"/></svg>