<svg xmlns="http://www.w3.org/2000/svg" xmlns:xlink="http://www.w3.org/1999/xlink" version="1.1" x="0px" y="0px" viewBox="0 0 100 100" enable-background="new 0 0 100 100" xml:space="preserve"><g><path d="M76.58,72.436c0.885,0,1.603-0.718,1.603-1.603V13.214c0-0.885-0.718-1.603-1.603-1.603h-47.62   c-3.939,0-7.144,3.205-7.144,7.144v57.619c0,3.939,3.205,7.144,7.144,7.144h5.433v4.871l5.709-3.018l5.707,3.018v-4.871H76.58   c0.885,0,1.603-0.718,1.603-1.603s-0.718-1.603-1.603-1.603c-1.17,0-1.507-0.168-1.507-3.938   C75.073,72.604,75.411,72.436,76.58,72.436z M72.221,80.312H45.809v-4.434H34.393v4.434h-5.433c-2.171,0-3.938-1.767-3.938-3.938   s1.767-3.938,3.938-3.938h43.26c-0.352,1.284-0.354,2.74-0.354,3.938C71.867,77.572,71.869,79.028,72.221,80.312z M74.978,69.23   H28.961V14.817h46.017V69.23z"></path></g></svg>