<svg xmlns="http://www.w3.org/2000/svg" xmlns:xlink="http://www.w3.org/1999/xlink" version="1.1" x="0px" y="0px" viewBox="0 0 100 100" style="enable-background:new 0 0 100 100;" xml:space="preserve"><style type="text/css">
	.st0{fill:none;stroke:#000000;stroke-width:1.2345;stroke-miterlimit:10;}
</style><path d="M87,16.4c-0.4-0.3-0.9-0.3-1.3-0.1l-6,2.6v-3.1c0-0.4-0.2-0.7-0.4-1c-0.3-0.3-0.7-0.4-1-0.3c-2,0.2-3.8,0.6-5.6,1.1v-3  c0-0.4-0.2-0.8-0.5-1c-0.3-0.3-0.7-0.4-1.1-0.3c-2.6,0.4-4.9,1.2-6.8,2.1V9.9c0-0.4-0.2-0.8-0.5-1.1c-0.3-0.2-0.7-0.3-1.1-0.2  c-5,1.5-8.7,5.7-10.6,12.2c-1.2,4.2-1.4,8-1.4,9l-0.9,0c0-1.1-0.2-4.9-1.4-9c-1.9-6.5-5.6-10.7-10.6-12.2c-0.4-0.1-0.8,0-1.1,0.2  c-0.3,0.3-0.5,0.7-0.5,1.1v3.5c-1.9-0.9-4.2-1.7-6.8-2.1c-0.4-0.1-0.8,0-1.1,0.3c-0.3,0.3-0.5,0.6-0.5,1v3c-1.7-0.5-3.6-0.9-5.6-1.1  c-0.4,0-0.8,0.1-1,0.3c-0.3,0.3-0.4,0.6-0.4,1v2.8l-5.3-2.4c-0.4-0.2-0.9-0.2-1.4,0.1c-0.4,0.3-0.6,0.7-0.6,1.2v58.4  c0,0.6,0.3,1.1,0.9,1.3L44.6,90c0.2,0.1,0.4,0.1,0.5,0.1l0.5,0c0.1,0,0.1,0,0.2,0h8.3c0,0,0,0,0,0l0.7,0c0,0,0,0,0,0  c0.2,0,0.4,0,0.5-0.1l31.4-12.6c0.5-0.2,0.9-0.7,0.9-1.3V17.6C87.6,17.1,87.4,16.7,87,16.4z M78.3,15.8L78.3,15.8l0.1,3.7L65,25.3  v-1.1l-3.4,1.5v1.1l-5.1,2.2C58.8,25.3,65.3,17.2,78.3,15.8L78.3,15.8z M45.8,88.8c-0.1,0-0.1-0.1-0.1-0.2V31.1h8.7v57.6  c0,0.1-0.1,0.2-0.2,0.2L45.8,88.8z M71.2,12.6L71.2,12.6l0.1,3.4c-10.5,3.5-15.4,11.3-16.7,13.8l-0.7,0C54.1,27.5,55.9,15,71.2,12.6  L71.2,12.6z M62.8,9.8C62.9,9.8,62.9,9.9,62.8,9.8l0.1,4.3c-8.8,4.9-10,14.1-10.2,15.8l-1,0C51.7,27.5,52.5,12.8,62.8,9.8z M37,9.9  c0,0,0-0.1,0.1-0.1c10.3,3.1,11.1,17.8,11.1,20l-1,0C47.1,28.2,45.8,19,37,14.1V9.9z M28.7,12.7l0.1-0.1c15.3,2.5,17,15.1,17.2,17.3  l-0.6,0c-1.3-2.4-6.1-10.3-16.7-13.8V12.7z M21.6,15.9l0.1-0.1c13,1.4,19.5,9.6,21.8,13.4l-21.9-9.9V15.9z M14.4,76.1V17.6  c0-0.1,0.1-0.1,0.1-0.2c0,0,0.1,0,0.1,0c0,0,0,0,0.1,0l29.8,13.4v57.7L14.5,76.2C14.4,76.2,14.4,76.1,14.4,76.1z M86.4,76.1  c0,0.1,0,0.1-0.1,0.2L55.6,88.6V30.8l6-2.6v19.1l1.7-3.5l1.7,3.5V26.7l21.1-9.2c0.1,0,0.1,0,0.2,0c0,0,0.1,0.1,0.1,0.2V76.1z"></path></svg>