<svg xmlns="http://www.w3.org/2000/svg" xmlns:xlink="http://www.w3.org/1999/xlink" version="1.1" x="0px" y="0px" viewBox="0 0 59 35.1" style="enable-background:new 0 0 59 35.1;" xml:space="preserve"><g><g><path d="M19.1,26c0-0.4,0-0.7,0-1.1c0-0.3,0-0.6,0.1-0.9C7.9,23,2,20.5,2,19c0-0.9,2.1-2.2,6.2-3.2c-0.2-0.6-0.3-1.3-0.3-2    C3.3,14.9,0,16.6,0,19C0,23,9.5,25.2,19.1,26z M57.9,19c0-2-2.2-3.5-5.6-4.6c0,0.7-0.2,1.4-0.5,2c2.7,0.9,4.1,1.9,4.1,2.6    c0,1.9-9,5.3-26.1,5.4c0.2,0.6,0.2,1.3,0.2,2C41.5,26.3,57.9,24.3,57.9,19z M19.4,28.1c-10.2-0.9-16-3-17.1-4.5    c-0.7,0.2-1.5,0.2-2.2,0.2c1.1,3.7,10.6,5.7,20,6.4c-0.2-0.3-0.4-0.7-0.5-1.1C19.5,28.7,19.5,28.4,19.4,28.1z M59,22.7    c-0.7,0.1-1.3,0.2-2,0.3c-0.1,1.9-9.2,5.4-26.6,5.5c0.2,0.7,0.2,1.4,0.2,2.1C42.3,30.4,59,28.4,59,23C59,22.9,59,22.8,59,22.7z     M49.8,14.6c0.3-0.5,0.2-1.1-0.3-1.4c-0.4-0.3-1.1-0.2-1.4,0.2c0.1-0.3,0.1-0.6-0.1-0.9c-0.3-0.5-0.9-0.6-1.4-0.3    c-4.5,3.1-11.5,5.6-16.2,4c-0.5-0.2-1.1,0.1-1.3,0.6c-0.2,0.5,0.1,1.1,0.6,1.3c1.2,0.4,2.6,0.6,4,0.6c4.7,0,10.1-2.2,14-4.8    c-3.6,4.6-12.1,5.7-18.5,5.1c-0.6,0-1,0.4-1.1,0.9s0.4,1,0.9,1.1c1,0.1,2,0.1,3,0.1C38.8,21.2,46.5,19.5,49.8,14.6z M29.9,13.3    c-0.6,0-1,0.3-1.1,0.9c-0.1,0.6,0.3,1,0.9,1.1c1.6,0.2,3.2,0.3,4.9,0.3c4.1,0,8.3-0.7,11.1-3.4c0.4-0.4,0.4-1,0-1.4    c-0.4-0.4-1-0.4-1.4,0C41,14,34.8,13.8,29.9,13.3z M30.7,10.6c-0.5-0.1-1.1,0.2-1.2,0.8c-0.1,0.5,0.2,1.1,0.8,1.2    c1.2,0.3,2.5,0.4,4,0.4c3,0,6.4-0.7,8.9-2.7c0.4-0.3,0.5-1,0.2-1.4c-0.3-0.4-1-0.5-1.4-0.2C38.9,11.1,34.1,11.4,30.7,10.6z     M28.6,6.7c2.1-0.2,4.5,0.8,5,2.8c0.1,0.5,0.5,0.8,1,0.8c0.1,0,0.2,0,0.3,0c0.5-0.1,0.9-0.7,0.7-1.2c-0.8-3-4.3-4.5-7.1-4.3    c-2.9,0.2-4.9,1.9-5.2,4.4c0,0.2,0,0.3,0.1,0.5c-3.1,0.9-5.4,2.8-6.4,5.2c-0.9,2.1-0.6,4.6,0.9,6.8c0.2,0.3,0.5,0.5,0.8,0.5    c0.2,0,0.4,0,0.5-0.2c0.5-0.3,0.6-0.9,0.3-1.4c-1.1-1.7-1.3-3.4-0.7-4.9c0.8-2,2.8-3.5,5.5-4.2c0.5-0.1,0.9-0.7,0.7-1.2    c0-0.1-0.1-0.2-0.1-0.2c0.2-0.2,0.3-0.4,0.3-0.6C25.6,7.1,27.9,6.8,28.6,6.7z M18.2,8c0.5,0.1,1.1-0.3,1.1-0.8    c0.4-2.4,2.7-3.7,4.5-4.3c1.3-0.5,2.8-0.7,4.3-0.8c-3.7,0.2-6.9,2.4-8.6,5.8c-0.1,0.2-0.1,0.4-0.1,0.6c-0.3-0.2-0.7-0.3-1-0.2    c-2.5,1-4.4,3.7-5,7c-0.5,2.7,0.1,5.1,1.7,6.6c0.2,0.2,0.4,0.3,0.7,0.3c0.3,0,0.5-0.1,0.7-0.3c0.4-0.4,0.3-1-0.1-1.4    c-1-1-1.4-2.7-1.1-4.8c0.5-2.6,2-4.8,3.8-5.5c0.5-0.2,0.7-0.7,0.6-1.1c0.1,0.1,0.1,0.1,0.2,0.2c0.1,0.1,0.3,0.1,0.4,0.1    c0.4,0,0.7-0.2,0.9-0.6c1.4-2.8,3.9-4.5,6.9-4.7c3.4-0.2,6.5,1.5,8.5,4.5c0.3,0.5,0.9,0.6,1.4,0.3c0.5-0.3,0.6-0.9,0.3-1.4    c-2.4-3.6-6.3-5.6-10.3-5.4c3.9-0.2,7.9,0.7,9.8,2.5c1,1,1.4,2.1,1,3.4c-0.1,0.5,0.2,1.1,0.7,1.2c0.1,0,0.2,0,0.3,0    c0.4,0,0.8-0.3,1-0.7c0.5-2,0-3.9-1.6-5.3C36.1,0,28.7-0.9,23.2,1c-3.4,1.2-5.4,3.2-5.9,5.9C17.2,7.4,17.6,7.9,18.2,8z M26.8,33.4    c-1.8-3.6-2.8-5.8-1-9.3c0.1-0.3,0.3-0.6,0.5-0.9c1.3-2.5,3.1-5.8,1.2-8.8c-0.9-1.4-1.9-1.6-2.5-1.5c-2.5,0.3-4.3,4.8-4.8,6.2    c-0.2,0.5,0.1,1.1,0.6,1.3c0.5,0.2,1.1-0.1,1.3-0.6c0.9-2.5,2.4-4.8,3.2-4.9c0.1,0,0.4,0.2,0.6,0.6c1.2,2-0.2,4.6-1.3,6.8    c-0.2,0.3-0.3,0.6-0.5,0.9c-2.2,4.4-0.8,7.4,1,11.1l0.1,0.3c0.2,0.4,0.5,0.6,0.9,0.6c0.1,0,0.3,0,0.4-0.1c0.5-0.2,0.7-0.8,0.5-1.3    L26.8,33.4z M15.3,7.1C12,7.9,10,12,9.8,14.6c-0.2,2.9,0.5,4.9,2.3,7.1c0.2,0.2,0.5,0.3,0.8,0.3c0.2,0,0.5-0.1,0.7-0.2    c0.4-0.4,0.5-1,0.1-1.4c-1.5-1.8-2-3.3-1.9-5.6c0.2-2,1.8-5.1,4-5.7c0.5-0.1,0.9-0.7,0.7-1.2C16.4,7.3,15.8,7,15.3,7.1z     M30.3,10.1c0.5,0,1-0.4,1.1-0.9c0-0.6-0.4-1-0.9-1.1c-0.6,0-2.5-0.1-3.5,1.1c-0.4,0.4-0.7,1.1-0.5,2.2c0.1,0.5,0.5,0.8,1,0.8    c0.1,0,0.1,0,0.2,0c0.5-0.1,0.9-0.6,0.8-1.2c-0.1-0.3,0-0.4,0-0.4C28.7,10.2,29.5,10.1,30.3,10.1z M8.4,12.7c0.1,0,0.2,0,0.3-0.1    c0.5-0.2,0.8-0.7,0.6-1.3c-0.7-2.1,0.2-4,1.4-4.9c1.3-0.9,2.8-0.8,4.2,0.3C15.4,7.1,16,7,16.3,6.6c0.3-0.4,0.2-1.1-0.2-1.4    C14,3.6,11.5,3.5,9.5,4.9c-2.1,1.5-3,4.5-2.1,7.1C7.5,12.4,7.9,12.7,8.4,12.7z"></path></g></g></svg>